<?xml version="1.0" encoding="utf-8"?>
<!-- Generator: Adobe Illustrator 19.1.0, SVG Export Plug-In . SVG Version: 6.00 Build 0)  -->
<svg version="1.1" id="Layer_1" xmlns="http://www.w3.org/2000/svg" xmlns:xlink="http://www.w3.org/1999/xlink" x="0px" y="0px"
	 viewBox="0 0 2543.5 575.9" style="enable-background:new 0 0 2543.5 575.9;" xml:space="preserve">
<style type="text/css">
	.st0{fill:#2C3E50;}
	.st1{fill:#2D3F50;}
</style>
<g>
	<g>
		<path class="st0" d="M131.8,97.3l113.4,335.4l114-335.4h90.6l-150,423.6H191.2L41.2,97.3H131.8z"/>
		<path class="st0" d="M697.6,204.1c20,13.2,34.2,31,42.6,53.4v-69h84v332.4h-84v-69.6c-8.4,22.4-22.6,40.3-42.6,53.7
			c-20,13.4-44,20.1-72,20.1c-28,0-53.2-6.8-75.6-20.4c-22.4-13.6-39.9-33.3-52.5-59.1s-18.9-56.1-18.9-90.9
			c0-34.8,6.3-65.1,18.9-90.9c12.6-25.8,30.1-45.5,52.5-59.1c22.4-13.6,47.6-20.4,75.6-20.4C653.6,184.3,677.6,190.9,697.6,204.1z
			 M588.4,283.9c-16,17.2-24,40.8-24,70.8s8,53.5,24,70.5c16,17,37.2,25.5,63.6,25.5c25.6,0,46.7-8.7,63.3-26.1
			c16.6-17.4,24.9-40.7,24.9-69.9c0-29.6-8.3-53.1-24.9-70.5c-16.6-17.4-37.7-26.1-63.3-26.1C625.6,258.1,604.4,266.7,588.4,283.9z"
			/>
		<path class="st0" d="M1095.4,520.9L985.6,375.7v145.2H901v-444h84.6v249.6l109.2-138H1195l-139.8,165.6l143.4,166.8H1095.4z"/>
		<path class="st0" d="M1451.2,214.9c24.4,20.4,39.6,47.6,45.6,81.6h-79.2c-3.2-16-10.4-28.8-21.6-38.4
			c-11.2-9.6-25.8-14.4-43.8-14.4c-14.4,0-25.6,3.4-33.6,10.2c-8,6.8-12,16-12,27.6c0,9.2,3.2,16.6,9.6,22.2
			c6.4,5.6,14.4,10,24,13.2c9.6,3.2,23.4,7,41.4,11.4c25.2,5.6,45.7,11.5,61.5,17.7c15.8,6.2,29.4,16,40.8,29.4
			c11.4,13.4,17.1,31.5,17.1,54.3c0,28.4-11.1,51.4-33.3,69c-22.2,17.6-52.1,26.4-89.7,26.4c-43.2,0-77.8-9.7-103.8-29.1
			c-26-19.4-41.8-47.1-47.4-83.1h81c2,16.4,9.2,29.3,21.6,38.7c12.4,9.4,28.6,14.1,48.6,14.1c14.4,0,25.4-3.5,33-10.5
			c7.6-7,11.4-16.1,11.4-27.3c0-9.6-3.3-17.4-9.9-23.4s-14.8-10.6-24.6-13.8c-9.8-3.2-23.7-7-41.7-11.4
			c-24.8-5.6-44.9-11.3-60.3-17.1c-15.4-5.8-28.6-15.1-39.6-27.9c-11-12.8-16.5-30.4-16.5-52.8c0-28.8,11-52.2,33-70.2
			c22-18,52.4-27,91.2-27C1394.4,184.3,1426.8,194.5,1451.2,214.9z"/>
		<path class="st0" d="M1984.6,221.5c22.8,25.2,34.2,60.6,34.2,106.2v193.2h-84V337.3c0-26.4-6.8-46.9-20.4-61.5
			c-13.6-14.6-32.2-21.9-55.8-21.9c-24,0-43.2,7.8-57.6,23.4c-14.4,15.6-21.6,38-21.6,67.2v176.4h-84.6V188.5h84.6v66.6
			c8.8-22.4,23.3-39.9,43.5-52.5c20.2-12.6,43.5-18.9,69.9-18.9C1931.2,183.7,1961.8,196.3,1984.6,221.5z"/>
		<path class="st0" d="M2127.2,462.1v58.8h-60.8v-58.8H2127.2z"/>
		<path class="st0" d="M2168,213.5c6.4-5.7,14.8-8.6,25.2-8.6s18.8,2.9,25.2,8.6c6.4,5.7,9.6,13.1,9.6,22.2c0,8.8-3.2,16.1-9.6,21.8
			c-6.4,5.7-14.8,8.6-25.2,8.6s-18.8-2.9-25.2-8.6c-6.4-5.7-9.6-13-9.6-21.8C2158.4,226.7,2161.6,219.3,2168,213.5z M2221.2,299.3
			v221.6h-56.4V299.3H2221.2z"/>
		<path class="st0" d="M2407,309.7c13.2,8.8,22.7,20.7,28.6,35.6V224.9h56v296h-56v-46.4c-5.9,14.9-15.4,26.9-28.6,35.8
			c-13.2,8.9-29.1,13.4-47.8,13.4c-18.7,0-35.5-4.5-50.4-13.6c-14.9-9.1-26.6-22.2-35-39.4c-8.4-17.2-12.6-37.4-12.6-60.6
			s4.2-43.4,12.6-60.6c8.4-17.2,20.1-30.3,35-39.4c14.9-9.1,31.7-13.6,50.4-13.6C2377.8,296.5,2393.8,300.9,2407,309.7z
			 M2334.4,362.9c-10.7,11.5-16,27.2-16,47.2s5.3,35.7,16,47c10.7,11.3,24.8,17,42.4,17c17.1,0,31.1-5.8,42.2-17.4
			c11.1-11.6,16.6-27.1,16.6-46.6c0-19.7-5.5-35.4-16.6-47c-11.1-11.6-25.1-17.4-42.2-17.4C2359.2,345.7,2345,351.5,2334.4,362.9z"
			/>
	</g>
	<g>
		<path class="st1" d="M1604.3,74.5c0-2.2-1.8-3.9-3.9-3.9c-2.2,0-3.9,1.8-3.9,3.9l0,73.1c-4.1,1.6-6.8,5.6-6.8,10l0,32l21.4,0v-32
			c0-4.4-2.7-8.3-6.8-10L1604.3,74.5z"/>
		<path class="st1" d="M1646.9,74.9c-8.2-2.9-33.3-7.8-34.3-8c-1.3-0.2-2.6,0.2-3.5,1.1c-0.9,0.9-1.3,2.2-1.1,3.5
			c0.2,1.1,5,26.2,8,34.4c1.6,4.6,3.8,9.9,8.3,14.4c10.2,10.2,26.8,10.2,37,0c10.2-10.2,10.2-26.8,0-37
			C1656.7,78.6,1652.1,76.7,1646.9,74.9z"/>
		<path class="st1" d="M1554.3,446.1c-3.7,0-6.7,3-6.8,6.7c0,3.7,3,6.7,6.7,6.8c0,0,0,0,0.1,0h92.1c3.7,0,6.7-3,6.7-6.7
			c0-3.7-3-6.7-6.7-6.7l0,0L1554.3,446.1z"/>
		<path class="st1" d="M1594.5,513v-45.6h11.7V513H1594.5z"/>
		<path class="st1" d="M1571.2,520.8c-3.2,0-5.8,2.6-5.8,5.8c0,3.2,2.6,5.8,5.8,5.8l58.4,0c3.2,0,5.8-2.6,5.8-5.8
			c0-3.2-2.6-5.8-5.8-5.8l0,0L1571.2,520.8z"/>
		<path class="st1" d="M1585.5,197.3c-3,0-5.5,2.5-5.5,5.5c0,0,0,0,0,0l0,25.7l40.9,0v-25.7c0-3-2.5-5.5-5.5-5.5L1585.5,197.3z"/>
		<path class="st1" d="M1573.8,236.3c-4.7,0-8.5,3.8-8.5,8.4c0,0,0,0,0,0v193.5h70.1l0-25.4l-25.3,0c-2.2,0-3.9-1.7-3.9-3.9
			c0-2.2,1.7-3.9,3.9-3.9c0,0,0,0,0,0l25.3,0l0-15.9l-10.7,0c-2.2,0-3.9-1.8-3.9-3.9c0-2.2,1.8-3.9,3.9-3.9l10.7,0l0-15.9l-25.3,0
			c-2.2,0-3.9-1.8-3.9-3.9c0-2.2,1.8-3.9,3.9-3.9l0,0l25.3,0l0-15.9h-10.7c-2.2,0-3.9-1.7-3.9-3.9c0-2.2,1.7-3.9,3.9-3.9
			c0,0,0,0,0,0l10.7,0v-15.9h-25.3c-2.2,0-3.9-1.8-3.9-3.9c0-2.2,1.8-3.9,3.9-3.9l25.3,0l0-15.9l-10.7,0c-2.2,0-3.9-1.8-3.9-3.9
			c0-2.2,1.8-3.9,3.9-3.9h10.7l0-15.9l-25.3,0c-2.2,0-3.9-1.8-3.9-3.9c0-2.1,1.7-3.9,3.9-3.9h25.3l0-18.1c0-4.7-3.8-8.4-8.4-8.5
			c0,0,0,0,0,0L1573.8,236.3z M1582.4,264.9l0,76.5c0,2.2-1.8,3.9-3.9,3.9c-2.2,0-3.9-1.8-3.9-3.9l0-76.5c0-2.2,1.7-3.9,3.9-3.9
			S1582.4,262.7,1582.4,264.9C1582.4,264.8,1582.4,264.8,1582.4,264.9z M1582.4,251.2c0,2.4-1.9,4.3-4.3,4.3c-2.4,0-4.3-1.9-4.3-4.3
			c0-2.4,1.9-4.3,4.3-4.3C1580.5,246.9,1582.4,248.8,1582.4,251.2C1582.4,251.1,1582.4,251.2,1582.4,251.2L1582.4,251.2z"/>
	</g>
</g>
</svg>
