<svg width="38" height="38" viewBox="0 0 38 38" fill="none" xmlns="http://www.w3.org/2000/svg">
<path d="M15.8334 26.125L25.3334 19L15.8334 11.875V26.125ZM19 3.16667C10.26 3.16667 3.16669 10.26 3.16669 19C3.16669 27.74 10.26 34.8333 19 34.8333C27.74 34.8333 34.8334 27.74 34.8334 19C34.8334 10.26 27.74 3.16667 19 3.16667ZM19 31.6667C12.0175 31.6667 6.33335 25.9825 6.33335 19C6.33335 12.0175 12.0175 6.33334 19 6.33334C25.9825 6.33334 31.6667 12.0175 31.6667 19C31.6667 25.9825 25.9825 31.6667 19 31.6667Z" fill="#2C3E50"/>
</svg>
